
<svg version="1.0" xmlns="http://www.w3.org/2000/svg"
 width="256.000000pt" height="216.000000pt" viewBox="0 0 256.000000 216.000000"
 preserveAspectRatio="xMidYMid meet">

<g transform="translate(0.000000,216.000000) scale(0.100000,-0.100000)"
fill="#fc4b08" stroke="none">
<path d="M1695 2128 c-19 -18 -68 -87 -109 -152 -62 -101 -72 -122 -63 -138
24 -37 54 -17 142 97 21 28 55 68 76 90 51 54 71 93 58 117 -16 30 -64 23
-104 -14z"/>
<path d="M2005 2021 c-41 -25 -77 -69 -122 -149 -20 -37 -50 -86 -66 -109 -26
-37 -29 -46 -19 -68 25 -55 96 -18 182 95 33 43 65 84 72 91 38 40 68 82 68
95 0 21 -45 64 -67 64 -10 0 -32 -8 -48 -19z"/>
<path d="M496 2007 c-23 -17 -26 -46 -8 -81 21 -42 163 -215 213 -260 41 -38
41 -38 61 -18 20 19 20 20 -3 63 -12 24 -36 67 -54 94 -17 28 -46 78 -65 113
-49 93 -98 123 -144 89z"/>
<path d="M2448 1795 c-3 -3 -50 -23 -105 -43 -54 -21 -116 -51 -137 -67 -66
-50 -98 -143 -57 -165 30 -15 36 -13 81 30 34 32 60 46 143 71 119 37 172 62
181 84 10 27 7 70 -6 83 -12 12 -90 17 -100 7z"/>
<path d="M222 1764 c-35 -24 -29 -67 14 -102 42 -34 159 -94 221 -112 50 -15
73 -8 73 22 0 23 -45 60 -207 171 -62 42 -69 43 -101 21z"/>
<path d="M984 1731 c-27 -12 -72 -66 -80 -97 -3 -13 -4 -43 -3 -68 l4 -44 -55
-17 c-66 -21 -224 -98 -300 -147 -322 -209 -496 -534 -474 -885 5 -73 11 -107
22 -115 16 -14 273 -15 417 -3 90 7 172 15 210 20 17 2 95 11 175 20 80 8 159
18 175 20 83 12 299 20 560 20 304 0 407 -5 595 -30 63 -8 121 -13 130 -10 22
7 75 99 95 165 72 236 -30 501 -270 702 -232 195 -584 328 -865 328 l-88 0
-27 45 c-34 59 -92 97 -153 101 -26 2 -56 0 -68 -5z m627 -296 c217 -57 416
-168 554 -309 84 -86 130 -155 173 -258 22 -53 26 -83 30 -190 2 -71 3 -128 0
-128 -2 0 -35 9 -73 19 -253 70 -593 83 -985 36 -49 -6 -316 -35 -370 -40 -25
-2 -85 -7 -135 -10 -49 -3 -106 -8 -125 -10 -19 -2 -64 -7 -100 -10 -36 -4
-132 -22 -213 -41 -82 -19 -163 -34 -180 -32 -30 3 -32 5 -29 38 9 95 52 243
104 359 60 134 211 309 343 398 288 194 679 263 1006 178z"/>
<path d="M13 1439 c-7 -7 -13 -24 -13 -37 0 -79 96 -113 217 -77 107 32 93 63
-42 95 -131 31 -148 33 -162 19z"/>
<path d="M1789 316 c-2 -2 -49 -7 -104 -10 -55 -4 -125 -9 -155 -12 -135 -12
-185 -14 -515 -19 -510 -7 -606 -12 -795 -41 -127 -19 -158 -30 -174 -62 -19
-37 -27 -92 -16 -112 11 -20 78 -35 239 -51 109 -11 818 -8 931 5 25 2 115 7
200 11 343 13 489 24 745 56 195 24 232 37 285 100 37 44 41 54 32 74 -11 25
-46 35 -182 54 -61 9 -483 14 -491 7z m297 -107 c130 -2 252 -12 209 -18 -5
-1 -59 -8 -120 -15 -60 -8 -146 -17 -190 -21 -44 -4 -91 -8 -105 -10 -14 -1
-74 -6 -135 -10 -60 -3 -117 -8 -125 -10 -8 -2 -98 -7 -200 -11 -102 -3 -203
-8 -225 -10 -53 -4 -1003 -4 -1035 1 -14 2 -33 4 -42 4 -13 1 -18 9 -18 31 l0
30 363 1 c199 0 403 2 452 4 50 2 198 6 330 10 132 4 256 8 275 10 19 1 114 6
210 10 96 4 177 9 179 11 2 2 7 2 10 -1 4 -2 79 -5 167 -6z"/>
</g>
</svg>
