
<svg version="1.0" xmlns="http://www.w3.org/2000/svg"
 width="256.000000pt" height="216.000000pt" viewBox="0 0 256.000000 216.000000"
 preserveAspectRatio="xMidYMid meet">
<g transform="translate(0.000000,216.000000) scale(0.027826,-0.030857)"
fill="#000000" stroke="none">

<path d="M5455 6477 c-39 -24 -384 -247 -767 -495 l-698 -451 -897 -4 c-824
-3 -903 -5 -957 -21 -217 -65 -377 -219 -447 -431 -23 -69 -24 -77 -27 -606
-3 -606 -2 -620 68 -765 67 -139 206 -262 352 -314 89 -31 171 -40 376 -40
133 0 192 -3 192 -11 0 -6 -52 -273 -115 -592 -125 -632 -129 -668 -95 -801
29 -115 73 -189 165 -282 133 -134 284 -192 470 -181 281 17 518 223 570 497
13 68 27 384 52 1168 l6 202 142 0 141 0 745 -481 c409 -265 756 -487 771
-495 60 -31 148 -11 186 43 53 78 200 536 270 843 224 980 157 2066 -185 2993
-24 67 -49 136 -55 152 -28 77 -78 115 -150 115 -34 0 -59 -10 -113 -43z m89
-479 c158 -494 231 -928 243 -1448 14 -598 -78 -1194 -269 -1752 l-23 -67
-657 426 -658 426 0 858 c0 832 1 859 19 868 10 6 304 195 652 421 348 225
636 410 640 410 4 0 28 -64 53 -142z m-2524 -1558 l0 -791 -402 3 -403 3 -59
29 c-75 37 -131 93 -165 165 l-26 56 0 535 c0 527 0 536 22 582 24 53 90 128
138 158 71 44 118 49 518 49 l377 1 0 -790z m860 0 l0 -790 -280 0 -280 0 0
790 0 790 280 0 280 0 0 -790z m-482 -1277 c-3 -104 -9 -253 -12 -333 -3 -80
-11 -284 -17 -455 -11 -334 -18 -378 -68 -457 -35 -56 -116 -112 -184 -129
-196 -48 -397 105 -397 303 0 37 198 1078 235 1236 5 22 5 22 228 22 l222 0
-7 -187z"/>
<path d="M7180 5673 c-52 -20 -770 -370 -793 -385 -77 -54 -76 -182 2 -238 57
-40 97 -38 207 13 282 129 702 339 726 362 15 14 32 44 38 67 23 82 -39 171
-125 182 -22 3 -47 3 -55 -1z"/>
<path d="M6505 4576 c-120 -53 -119 -213 2 -275 15 -8 158 -11 468 -11 392 0
451 2 481 16 78 37 105 131 61 207 -46 77 -43 77 -545 77 -342 -1 -444 -4
-467 -14z"/>
<path d="M6435 3845 c-22 -8 -41 -15 -42 -15 -1 0 -14 -17 -28 -37 -44 -65
-31 -161 28 -204 12 -9 196 -100 409 -202 403 -195 427 -203 486 -173 52 27
75 62 80 119 5 62 -13 105 -55 134 -45 31 -775 380 -808 387 -16 3 -48 -1 -70
-9z"/>
</g>
</svg>
